Coordinates
version=1
nRows=13
nColumns=40
inDegrees=yes

Units are S.I. units (second, meters, Newtons, ...)
If the header above contains a line with 'inDegrees', this indicates whether rotational values are in degrees (yes) or radians (no).

endheader
time	pelvis_tilt	pelvis_list	pelvis_rotation	pelvis_tx	pelvis_ty	pelvis_tz	hip_flexion_r	hip_adduction_r	hip_rotation_r	knee_angle_r	knee_angle_r_beta	ankle_angle_r	subtalar_angle_r	mtp_angle_r	hip_flexion_l	hip_adduction_l	hip_rotation_l	knee_angle_l	knee_angle_l_beta	ankle_angle_l	subtalar_angle_l	mtp_angle_l	lumbar_extension	lumbar_bending	lumbar_rotation	arm_flex_r	arm_add_r	arm_rot_r	elbow_flex_r	pro_sup_r	wrist_flex_r	wrist_dev_r	arm_flex_l	arm_add_l	arm_rot_l	elbow_flex_l	pro_sup_l	wrist_flex_l	wrist_dev_l
      2.80000000	    -18.95852328	      3.45800812	      4.13152713	     -0.30189444	      0.91937769	     -0.99275722	     17.56249938	    -12.41469938	     -6.26935124	     78.84758960	      1.37615005	     -4.60659622	      0.00000000	      0.00000000	     50.00513351	      3.46574014	     -8.76710782	     56.81343153	      0.99158144	     15.92362572	      0.00000000	      0.00000000	      2.89896487	    -10.62561834	     -6.44665983	     89.93004945	     -4.20592293	     37.80686148	     51.01039545	     84.86952307	      0.00000000	      0.00000000	     89.95587714	    -15.47428956	     37.48199619	     57.73750415	     79.85960630	      0.00000000	      0.00000000
      2.80500000	    -19.08819839	      3.40794716	      4.16060272	     -0.30253253	      0.91857867	     -0.99268357	     17.82630639	    -12.38995964	     -6.32426018	     78.99376688	      1.37870132	     -4.58566953	      0.00000000	      0.00000000	     50.27772229	      3.45622817	     -8.65176617	     56.98577426	      0.99458939	     15.93743151	      0.00000000	      0.00000000	      2.93878448	    -10.60656024	     -6.46497369	     89.93029813	     -4.21358303	     37.63703350	     50.96937353	     85.08435263	      0.00000000	      0.00000000	     89.95599728	    -15.40806618	     37.40057702	     57.79200190	     79.48341437	      0.00000000	      0.00000000
      2.81000000	    -19.14360524	      3.48213107	      4.22564138	     -0.30314915	      0.91786797	     -0.99265694	     17.99451873	    -12.52240389	     -6.40921458	     79.16997590	      1.38177675	     -4.64420802	      0.00000000	      0.00000000	     50.45713835	      3.54950347	     -8.69734691	     57.12598390	      0.99703651	     15.94126915	      0.00000000	      0.00000000	      2.87734942	    -10.70932857	     -6.49394612	     89.93052854	     -4.25581626	     37.66912521	     50.92755100	     84.70004334	      0.00000000	      0.00000000	     89.95620921	    -15.35134943	     37.23890514	     57.80304394	     81.62349836	      0.00000000	      0.00000000
      2.81500000	    -19.30622759	      3.48147857	      4.19130819	     -0.30377759	      0.91687394	     -0.99241345	     18.31574975	    -12.53528366	     -6.40086884	     79.38591282	      1.38554556	     -4.57044656	      0.00000000	      0.00000000	     50.77487217	      3.51403849	     -8.67530943	     57.34293466	      1.00082301	     15.97935347	      0.00000000	      0.00000000	      2.97001231	    -10.72534495	     -6.47285532	     89.93065482	     -4.21206797	     37.37611860	     51.05883944	     84.86844873	      0.00000000	      0.00000000	     89.95630392	    -15.35925224	     37.11906906	     57.92037893	     80.69898378	      0.00000000	      0.00000000
      2.82000000	    -19.36365900	      3.44819770	      4.21055763	     -0.30429403	      0.91614174	     -0.99226319	     18.48145545	    -12.52298101	     -6.45245354	     79.51624647	      1.38782031	     -4.61672198	      0.00000000	      0.00000000	     50.96339316	      3.49311789	     -8.62414791	     57.51069648	      1.00375101	     16.05222555	      0.00000000	      0.00000000	      2.93590518	    -10.71130139	     -6.48781801	     89.93089041	     -4.23999990	     37.26851330	     51.12709295	     84.95950156	      0.00000000	      0.00000000	     89.95636099	    -15.34460170	     37.01598918	     57.97323647	     80.30745312	      0.00000000	      0.00000000
      2.82500000	    -19.45578548	      3.46342755	      4.21730343	     -0.30488333	      0.91533347	     -0.99210726	     18.70836398	    -12.56262671	     -6.46233887	     79.69359193	      1.39091557	     -4.62656391	      0.00000000	      0.00000000	     51.17911295	      3.51706886	     -8.59474276	     57.65903333	      1.00633998	     15.90405862	      0.00000000	      0.00000000	      2.94190888	    -10.73920871	     -6.51045857	     89.93114112	     -4.19747088	     37.15607400	     51.17681664	     84.64445747	      0.00000000	      0.00000000	     89.95659199	    -15.36960398	     36.98512521	     58.05919513	     81.64459133	      0.00000000	      0.00000000
      2.83000000	    -19.59747616	      3.49538316	      4.22880088	     -0.30543627	      0.91450353	     -0.99198576	     18.97464052	    -12.62322880	     -6.47862027	     79.82911503	      1.39328090	     -4.61896787	      0.00000000	      0.00000000	     51.41064344	      3.53341759	     -8.66155965	     57.75338319	      1.00798669	     16.01716031	      0.00000000	      0.00000000	      2.98944448	    -10.80216536	     -6.52825138	     89.93115786	     -4.21862251	     37.05257168	     51.26510436	     84.78267014	      0.00000000	      0.00000000	     89.95672976	    -15.36646586	     36.92667250	     58.13929943	     80.59518763	      0.00000000	      0.00000000
      2.83500000	    -19.68827194	      3.49355117	      4.27322750	     -0.30605833	      0.91370842	     -0.99191337	     19.18656019	    -12.65761495	     -6.53055499	     80.02216119	      1.39665019	     -4.62515974	      0.00000000	      0.00000000	     51.64891451	      3.56691094	     -8.60047725	     57.94645148	      1.01135637	     15.99481778	      0.00000000	      0.00000000	      2.98976752	    -10.80476351	     -6.59422280	     89.93151404	     -4.20113554	     36.99288705	     51.29409411	     85.02503548	      0.00000000	      0.00000000	     89.95687346	    -15.34638454	     36.82633096	     58.14220138	     80.19696570	      0.00000000	      0.00000000
      2.84000000	    -19.84552183	      3.37144638	      4.34537648	     -0.30670270	      0.91275950	     -0.99181133	     19.43846892	    -12.53963486	     -6.60076397	     80.15234761	      1.39892237	     -4.44314768	      0.00000000	      0.00000000	     52.01354999	      3.53313495	     -8.42805073	     58.22998512	      1.01630496	     15.88457504	      0.00000000	      0.00000000	      3.07169420	    -10.74626785	     -6.58603439	     89.93144343	     -4.27471304	     36.95063782	     51.27343687	     80.06370181	      0.00000000	      0.00000000	     89.95743776	    -15.13491744	     37.04101353	     58.05592663	     75.28384150	      0.00000000	      0.00000000
      2.84500000	    -19.86134042	      3.47746698	      4.37619935	     -0.30712301	      0.91209871	     -0.99180233	     19.55983148	    -12.72515405	     -6.65298895	     80.30598931	      1.40160392	     -4.64779012	      0.00000000	      0.00000000	     52.06127665	      3.64724569	     -8.45877406	     58.23489563	      1.01639067	     16.13247116	      0.00000000	      0.00000000	      2.97286666	    -10.84297098	     -6.69051779	     89.93194320	     -4.21817479	     36.73642123	     51.37492080	     84.65830940	      0.00000000	      0.00000000	     89.95714399	    -15.30392700	     36.67407139	     58.27247196	     81.70997443	      0.00000000	      0.00000000
      2.85000000	    -20.09866620	      3.42547102	      4.45083340	     -0.30781160	      0.91116546	     -0.99176177	     19.94059233	    -12.69693879	     -6.67411329	     80.48642703	      1.40475315	     -4.60922670	      0.00000000	      0.00000000	     52.48224173	      3.71122992	     -8.28367681	     58.43432038	      1.01987129	     16.13528662	      0.00000000	      0.00000000	      3.14310497	    -10.82966072	     -6.72728441	     89.93180399	     -4.24316482	     36.93345577	     51.39541496	     78.57256017	      0.00000000	      0.00000000	     89.95759911	    -15.23104960	     36.88404391	     58.33397947	     75.68950079	      0.00000000	      0.00000000
      2.85500000	    -20.05242982	      3.56296947	      4.38646668	     -0.30824368	      0.91056373	     -0.99156809	     20.01482004	    -12.84063468	     -6.58782456	     80.63125783	      1.40728093	     -4.73484248	      0.00000000	      0.00000000	     52.50050090	      3.72679997	     -8.47929871	     58.55229349	      1.02193031	     16.31481919	      0.00000000	      0.00000000	      2.98233073	    -10.95630913	     -6.72605181	     89.93240281	     -4.16900770	     36.66060193	     51.29734993	     84.69776692	      0.00000000	      0.00000000	     89.95742766	    -15.33181479	     36.56476732	     58.51643386	     78.54864690	      0.00000000	      0.00000000
      2.86000000	    -20.15400854	      3.52480665	      4.44316572	     -0.30882451	      0.90990540	     -0.99140775	     20.21565638	    -12.82872255	     -6.65962212	     80.74436259	      1.40925498	     -4.72467778	      0.00000000	      0.00000000	     52.70292601	      3.73146257	     -8.45043415	     58.62862473	      1.02326254	     16.28461707	      0.00000000	      0.00000000	      2.99201665	    -10.95320703	     -6.78033184	     89.93256540	     -4.18296697	     36.44495783	     51.43003640	     84.55661114	      0.00000000	      0.00000000	     89.95760876	    -15.26182393	     36.36893280	     58.38732452	     81.82006932	      0.00000000	      0.00000000
